<svg width="23" height="23" viewBox="0 0 23 23" fill="none" xmlns="http://www.w3.org/2000/svg">
<path d="M1.01931 16.43C1.0399 16.3009 1.07135 16.1738 1.11331 16.05C1.31183 15.514 1.69151 15.0644 2.18662 14.779C2.68172 14.4935 3.26106 14.3902 3.82431 14.487C4.00884 14.5167 4.19764 14.4722 4.34944 14.3631C4.50123 14.2541 4.60365 14.0893 4.63431 13.905L5.22231 10.194C5.46561 8.64853 6.14958 7.2061 7.19218 6.03969C8.23479 4.87328 9.59175 4.03242 11.1003 3.61796C11.2415 2.80289 11.6965 2.07561 12.3676 1.59208C13.0388 1.10855 13.8727 0.907279 14.6905 1.03144C15.5084 1.1556 16.245 1.5953 16.7424 2.25624C17.2398 2.91718 17.4584 3.74672 17.3513 4.56696C18.6526 5.37275 19.687 6.54481 20.3247 7.93615C20.9625 9.32749 21.1752 10.8762 20.9363 12.388L20.3063 16.338C20.2793 16.522 20.326 16.7093 20.4363 16.8591C20.5466 17.0089 20.7115 17.1091 20.8953 17.138C21.4603 17.2151 21.9799 17.4889 22.3631 17.9112C22.7462 18.3334 22.9683 18.8772 22.9903 19.447C22.9916 19.7574 22.9317 20.0651 22.8141 20.3525C22.6964 20.6398 22.5233 20.9011 22.3046 21.1215C22.0859 21.3419 21.8259 21.517 21.5395 21.6368C21.253 21.7567 20.9458 21.8189 20.6353 21.82H20.6103C20.4865 21.8199 20.3628 21.8105 20.2403 21.792L17.7983 21.413C17.383 22.1333 16.7012 22.6615 15.9 22.8837C15.0988 23.106 14.2423 23.0044 13.5153 22.601C13.1207 22.3839 12.7781 22.0836 12.5109 21.721C12.2438 21.3584 12.0587 20.9422 11.9683 20.501L3.00131 19.114C2.69459 19.0686 2.39984 18.9632 2.13402 18.8036C1.86819 18.644 1.63653 18.4334 1.45235 18.184C1.26816 17.9346 1.13509 17.6512 1.06077 17.3502C0.98646 17.0492 0.97237 16.7364 1.01931 16.43ZM14.4533 2.66596C14.3706 2.6531 14.287 2.64642 14.2033 2.64596C13.9428 2.64626 13.6862 2.71019 13.456 2.83218C13.2258 2.95418 13.0289 3.13054 12.8823 3.34596H12.9203C13.2162 3.33715 13.5124 3.3455 13.8073 3.37096C14.1178 3.40026 14.4263 3.44733 14.7313 3.51196C14.7973 3.52496 14.8623 3.54396 14.9313 3.55996C15.1813 3.61796 15.4263 3.68596 15.6663 3.76696C15.6903 3.77396 15.7143 3.77796 15.7383 3.78696C15.6538 3.49677 15.4878 3.23692 15.26 3.03822C15.0323 2.83953 14.7523 2.71033 14.4533 2.66596ZM15.0533 21.435C15.3886 21.4367 15.7158 21.3317 15.9873 21.135L13.7663 20.791C13.9154 20.9916 14.1095 21.1543 14.3331 21.266C14.5567 21.3777 14.8034 21.4353 15.0533 21.434V21.435ZM2.69431 17.201C2.75487 17.2985 2.83585 17.3817 2.93166 17.4448C3.02748 17.508 3.13585 17.5497 3.24931 17.567L12.8033 19.05L17.4463 19.771L20.4843 20.241C20.5978 20.2593 20.714 20.2528 20.8247 20.2217C20.9354 20.1906 21.038 20.1357 21.1253 20.061C21.2137 19.9869 21.2844 19.8941 21.3325 19.7892C21.3806 19.6844 21.4048 19.5703 21.4033 19.455C21.3855 19.2591 21.3006 19.0753 21.1631 18.9347C21.0256 18.7941 20.8438 18.7052 20.6483 18.683C20.052 18.5929 19.5158 18.2697 19.1578 17.7843C18.7998 17.299 18.6493 16.6913 18.7393 16.095L19.3683 12.145C19.5668 10.868 19.3649 9.56091 18.7902 8.4034C18.2156 7.2459 17.2965 6.29483 16.1593 5.68096L16.1193 5.66496C15.3588 5.25865 14.5242 5.01002 13.6653 4.93396C13.4046 4.91128 13.1427 4.90627 12.8813 4.91896L12.7513 4.92496C12.4811 4.94101 12.2122 4.97441 11.9463 5.02496H11.9213C10.6172 5.29735 9.42741 5.96144 8.51101 6.92842C7.59461 7.89539 6.99532 9.11914 6.79331 10.436L6.20131 14.147C6.10194 14.7439 5.77045 15.2772 5.2792 15.6306C4.78794 15.984 4.17684 16.1286 3.57931 16.033C3.38657 15.9948 3.18656 16.0235 3.01237 16.1145C2.83817 16.2054 2.70022 16.353 2.62131 16.533C2.5825 16.6426 2.5689 16.7596 2.58154 16.8753C2.59418 16.9909 2.63273 17.1023 2.69431 17.201Z" fill="#475B79"/>
</svg>
