import React from 'react'

<svg width="22" height="22" viewBox="0 0 22 22" fill="none" xmlns="http://www.w3.org/2000/svg">
<path d="M15.516 0.306203C25.1609 -1.14238 18.9816 7.07235 15.9927 9.38274C18.0464 10.9597 20.1551 13.1784 21.0536 15.6905C22.7222 20.2929 18.6148 20.9714 15.516 19.8162C12.1237 18.6243 9.1349 16.0755 7.15457 13.0867C6.60447 13.0867 5.99937 12.995 5.43094 12.83C6.54946 15.9839 7.02621 19.2111 6.71449 21.8515C6.71449 16.534 4.18406 11.2531 0.535114 6.85231C-0.748437 5.31205 0.571787 4.17519 1.72698 5.66044C2.51545 6.74229 3.23057 7.86082 3.87234 9.01601C5.13756 4.68861 11.2986 0.911305 15.516 0.306203ZM14.1407 8.13586C16.0294 6.98067 21.7687 0.819623 16.4145 1.36972C13.3339 1.71811 9.59331 4.56026 8.05305 6.3939C10.1984 6.13719 12.3805 7.07235 14.1407 8.13586ZM8.82318 12.9217C10.5468 14.847 12.8939 16.7173 15.4243 17.3958C16.8912 17.7808 18.5048 17.6158 17.9181 15.5255C17.313 13.6001 15.7727 11.9132 14.2691 10.6296C13.8474 10.923 13.3706 11.2347 12.8939 11.4364C11.6103 12.1515 10.2351 12.665 8.82318 12.9217Z" fill="#10112B"/>
</svg>
