<svg width="84" height="12" viewBox="0 0 84 12" fill="none" xmlns="http://www.w3.org/2000/svg">
<path d="M10.3959 0.205444H10.4326C10.6526 0.205444 10.781 0.370472 10.781 0.590509V10.4738C10.781 10.6389 10.6526 10.8222 10.4326 10.8222C10.2675 10.8222 10.0842 10.6939 10.0842 10.4738V0.553836C10.0842 0.370472 10.2125 0.205444 10.3959 0.205444ZM0.989337 0.718864H7.46208C7.68212 0.718864 7.81047 0.938901 7.81047 1.10393C7.81047 1.26896 7.68212 1.45232 7.46208 1.45232H1.33773V5.57801H6.87532C7.04034 5.57801 7.22371 5.70637 7.22371 5.92641C7.22371 6.09143 7.09535 6.2748 6.87532 6.2748H1.39274V10.5288C1.35606 10.7489 1.1727 10.9139 0.971003 10.9139C0.750966 10.9139 0.585938 10.7489 0.585938 10.5288V1.12226H0.62261C0.604273 0.883891 0.787637 0.718864 0.989337 0.718864ZM19.7841 3.78104C19.7841 3.56101 19.6191 3.43265 19.4357 3.43265C19.2157 3.43265 19.0873 3.59768 19.0873 3.78104V7.90674C19.0873 9.31864 17.9322 10.4188 16.5203 10.3822C15.0167 10.3822 14.1549 9.41032 14.1549 7.87007V3.78104C14.1549 3.56101 13.9898 3.43265 13.8065 3.43265C13.6414 3.43265 13.4581 3.59768 13.4581 3.78104V7.99842C13.4581 9.74038 14.5766 11.0239 16.4102 11.0239C17.5288 11.0606 18.5923 10.4738 19.1057 9.48367V10.5472C19.1057 10.7672 19.2707 10.8956 19.4541 10.8956C19.6741 10.8956 19.8025 10.7305 19.8025 10.5472H19.7658V3.78104H19.7841ZM26.2935 3.83605C26.2935 4.00108 26.1285 4.12944 25.9451 4.12944H23.5798V8.86023C23.5798 9.92374 24.1849 10.3088 25.0833 10.3088C25.3767 10.3088 25.6884 10.2721 25.9451 10.1805C26.1102 10.1805 26.2385 10.3088 26.2385 10.4738C26.2385 10.6022 26.1469 10.7305 26.0185 10.7672C25.6701 10.8956 25.285 10.9322 24.955 10.9322C23.8365 10.9322 22.9013 10.2905 22.9013 8.93358V4.12944H22.0945C21.9295 4.12944 21.7461 3.96441 21.7461 3.78104C21.7461 3.61602 21.9111 3.48766 22.0945 3.48766H22.9013V1.45232C22.9013 1.28729 23.0297 1.10393 23.1947 1.10393H23.2314C23.3964 1.10393 23.5798 1.26896 23.5798 1.45232V3.48766H25.9451C26.1285 3.48766 26.2935 3.65269 26.2935 3.83605ZM31.7945 4.12944C31.9595 4.12944 32.1428 4.00108 32.1428 3.83605C32.1428 3.67103 31.9778 3.48766 31.7945 3.48766H29.4291V1.45232C29.4291 1.28729 29.264 1.10393 29.0807 1.10393H29.044C28.879 1.10393 28.7506 1.26896 28.7506 1.45232V3.48766H27.9438C27.7788 3.48766 27.5954 3.61602 27.5954 3.78104C27.5954 3.94607 27.7605 4.12944 27.9438 4.12944H28.7506V8.93358C28.7506 10.2905 29.6858 10.9322 30.8043 10.9322C31.1527 10.9322 31.5377 10.8956 31.8678 10.7672C31.9962 10.7305 32.0878 10.6022 32.0878 10.4738C32.0878 10.3088 31.9595 10.1805 31.7945 10.1805C31.5377 10.2721 31.2444 10.3088 30.9326 10.3088C30.0342 10.3088 29.4291 9.92374 29.4291 8.86023V4.12944H31.7945ZM33.4264 7.15495C33.4264 4.99125 34.93 3.28596 36.947 3.28596C39.0557 3.28596 40.3759 4.99125 40.3759 7.15495C40.3759 7.31997 40.2109 7.50334 40.0275 7.50334H34.1965C34.3249 9.33698 35.6634 10.4005 37.112 10.4005C38.0105 10.4005 38.909 10.0154 39.5141 9.37365C39.5507 9.33698 39.6424 9.28197 39.7341 9.28197C39.8991 9.28197 40.0825 9.447 40.0825 9.63036C40.0825 9.72204 40.0458 9.79539 39.9541 9.88707C39.2207 10.6939 38.1572 11.1156 37.0753 11.0789C35.095 11.0789 33.4264 9.53868 33.4264 7.20996V7.15495ZM43.163 5.61469C43.6398 4.38615 44.7949 3.48766 46.1152 3.39598C46.3352 3.39598 46.5002 3.56101 46.5002 3.81772C46.5002 3.98275 46.3719 4.20278 46.1518 4.20278H46.1152C44.5199 4.36781 43.163 5.523 43.163 7.90674V10.6389C43.1263 10.8589 42.998 10.9873 42.7779 10.9873C42.6129 10.9873 42.4296 10.8222 42.4296 10.6389V3.81772C42.4662 3.59768 42.5946 3.46933 42.8146 3.46933C42.9796 3.46933 43.163 3.63435 43.163 3.81772V5.61469ZM57.8138 3.01092C57.3004 3.01092 56.8786 3.35931 56.7503 3.85439L55.5034 7.81506L54.2565 3.85439C54.1282 3.34097 53.6514 2.95591 53.1013 2.95591H52.973C52.4229 2.95591 51.9461 3.3043 51.8178 3.85439L50.5709 7.77838L49.379 3.81772C49.2507 3.34097 48.8289 2.97424 48.3155 2.97424H48.2789C47.7288 2.97424 47.2887 3.45099 47.2887 4.00108C47.2887 4.16611 47.3254 4.34947 47.3804 4.5145L49.3057 10.0154C49.4341 10.5655 49.9108 10.9506 50.4976 10.9873H50.5892C51.1393 10.9873 51.6161 10.6022 51.7811 10.0521L53.028 6.12811L54.2749 10.0521C54.4032 10.6022 54.9166 10.9873 55.4667 10.9873H55.5584C56.1635 10.9873 56.6769 10.6022 56.8053 10.0154L58.7306 4.47783C58.7673 4.34947 58.8223 4.18445 58.8223 4.05609V4.01942C58.8039 3.45099 58.3822 3.01092 57.8138 3.01092ZM60.8209 3.39598C61.6277 3.13927 62.4529 2.97424 63.3147 3.01092C64.5066 3.01092 65.3684 3.35931 66.0101 3.9094C66.6152 4.58785 66.9086 5.48633 66.8719 6.38482V9.86874C66.8719 10.4738 66.3952 10.9322 65.8084 10.9322C65.2583 10.9322 64.7816 10.5472 64.7449 9.99709C64.1398 10.6389 63.278 11.0239 62.3795 10.9689C60.9676 10.9689 59.7208 10.1254 59.7208 8.58519C59.7208 6.8799 61.0043 6.0731 62.8563 6.0731C63.4981 6.0731 64.1398 6.16478 64.7449 6.36648V6.23812C64.7449 5.30297 64.1948 4.82622 63.0763 4.82622C62.5629 4.82622 62.0495 4.86289 61.5361 5.04626C61.4444 5.08293 61.316 5.08293 61.2427 5.08293C60.7293 5.1196 60.3075 4.73454 60.3075 4.23946C60.2709 3.87273 60.4726 3.52434 60.8209 3.39598ZM73.473 3.74437C73.6014 3.26763 74.0231 2.97424 74.4999 2.97424C75.105 2.97424 75.5634 3.45099 75.5634 4.00108V4.03775C75.5634 4.20278 75.5267 4.38615 75.435 4.55117L73.1246 10.0521C72.9046 10.6022 72.3912 10.9506 71.8411 10.9873H71.7128C71.1077 10.9506 70.6492 10.5655 70.4659 10.0154L68.0638 4.5145C67.9721 4.34947 67.9355 4.16611 67.9355 4.00108C67.9721 3.39598 68.4489 2.97424 68.999 2.97424C69.5124 2.97424 69.9341 3.32263 70.0625 3.78104L71.7311 8.25513L73.473 3.74437ZM76.4435 7.31997C76.5352 9.447 78.3689 11.1156 80.5142 10.9873C81.5044 10.9873 82.4395 10.6939 83.2097 10.0521C83.4297 9.88707 83.5031 9.66704 83.5031 9.41033V9.37365C83.5031 8.8969 83.118 8.53018 82.6412 8.53018C82.4762 8.53018 82.2562 8.56685 82.1278 8.6952C81.6511 9.0436 81.101 9.2453 80.5326 9.20862C79.5974 9.2453 78.7723 8.60352 78.6439 7.66837H83.063C83.6131 7.63169 84.0531 7.15495 83.9981 6.60485V6.43983C83.9981 4.5145 82.3295 2.9009 80.2758 2.95591C78.0021 2.95591 76.4069 4.78955 76.4069 7.00825V7.31997H76.4435Z" fill="#10112B"/>
</svg>
