<svg width="22" height="22" viewBox="0 0 22 22" fill="none" xmlns="http://www.w3.org/2000/svg">
<path d="M21.0303 4.54381H16.7823C17.0832 4.11366 17.2603 3.60923 17.2944 3.0854C17.3285 2.56157 17.2184 2.03842 16.9758 1.57286C16.7333 1.10731 16.3678 0.717186 15.9189 0.444944C15.4701 0.172702 14.9552 0.0287704 14.4303 0.0288104C13.641 0.0292061 12.8656 0.236409 12.1813 0.629777C11.4971 1.02315 10.9278 1.58895 10.5303 2.27081C10.1327 1.58895 9.5635 1.02315 8.87923 0.629777C8.19495 0.236409 7.41955 0.0292061 6.63027 0.0288104C6.10508 0.0282212 5.5898 0.171754 5.14054 0.443776C4.69129 0.715798 4.32529 1.10588 4.0824 1.57153C3.83952 2.03719 3.72907 2.56056 3.76308 3.08465C3.79708 3.60874 3.97425 4.11345 4.27527 4.54381H0.0302734V9.46781H1.26127V21.0288H19.7963V9.46781H21.0303V4.54381ZM14.4303 1.25881C14.8658 1.25881 15.2834 1.43181 15.5913 1.73974C15.8993 2.04768 16.0723 2.46532 16.0723 2.90081C16.0723 3.3363 15.8993 3.75394 15.5913 4.06188C15.2834 4.36981 14.8658 4.54281 14.4303 4.54281H11.1443C11.1453 3.67182 11.4919 2.83683 12.108 2.22114C12.7241 1.60544 13.5593 1.25934 14.4303 1.25881ZM11.1453 20.7058H9.91227V9.46781H11.1443L11.1453 20.7058ZM9.91227 8.23781V5.77381H11.1443V8.23781H9.91227ZM4.98727 2.90081C4.9878 2.46531 5.16111 2.04782 5.46914 1.73997C5.77718 1.43212 6.19478 1.25907 6.63027 1.25881C7.50075 1.26013 8.33517 1.60658 8.9506 2.22219C9.56602 2.83781 9.91222 3.67234 9.91327 4.54281H6.63027C6.19478 4.54255 5.77718 4.3695 5.46914 4.06165C5.16111 3.7538 4.9878 3.33631 4.98727 2.90081ZM1.26027 5.77381H8.68227V8.23781H1.26027V5.77381ZM19.7973 8.23781H12.3753V5.77381H19.7973V8.23781Z" fill="#0F61D9"/>
</svg>
