<svg width="45" height="19" viewBox="0 0 45 19" fill="none" xmlns="http://www.w3.org/2000/svg">
<path fill-rule="evenodd" clip-rule="evenodd" d="M8.24719 12.1502C8.24719 14.3735 6.53921 15.6398 4.0067 15.6398C2.95394 15.6398 1.84228 15.4336 0.708539 14.9404V11.9956C1.73185 12.5551 2.99811 12.9821 4.0067 12.9821C4.684 12.9821 5.14044 12.798 5.14044 12.2312C5.14044 10.7588 0.509766 11.3109 0.509766 7.89497C0.509766 5.70846 2.19566 4.40539 4.66191 4.40539C5.6705 4.40539 6.67909 4.56 7.68768 4.97227V7.88024C6.76007 7.37227 5.58216 7.08515 4.65455 7.08515C4.01406 7.08515 3.58707 7.2692 3.58707 7.75509C3.58707 9.13178 8.24719 8.47656 8.24719 12.1502ZM11.8766 11.6275C11.8766 13.4459 13.7981 12.879 14.1883 12.7244V15.2275C13.7834 15.4557 13.0472 15.6398 12.0533 15.6398C10.2423 15.6398 8.88768 14.2925 8.88768 12.4668L8.9024 2.59435L11.8766 1.95386V4.60417H14.1883V7.23239H11.8766V11.6275ZM18.2006 8.08638V15.4189H15.1527V4.60417H17.884L17.9797 5.51705C18.7233 4.1919 20.2546 4.45693 20.6595 4.60417V7.43853C20.2766 7.31337 18.9662 7.12196 18.2006 8.08638ZM21.3957 1.08515L24.4509 0.429932V2.94772L21.3957 3.60294V1.08515ZM21.3957 4.60417H24.4509V15.4189H21.3957V4.60417ZM30.0975 7.13669C29.3981 7.13669 28.9564 7.39435 28.6398 7.74773L28.6546 12.3342C28.949 12.6582 29.376 12.9232 30.0901 12.9232C31.2165 12.9232 31.9748 11.679 31.9748 10.0226C31.9822 8.39558 31.2092 7.13669 30.0975 7.13669ZM30.8042 15.6398C29.7368 15.6398 29.0889 15.1833 28.6472 14.8594L28.6398 18.3269L25.592 18.9821V4.60417H28.3748L28.4411 5.36981C28.8901 4.97227 29.6337 4.40539 30.8263 4.40539C32.9687 4.40539 34.9785 6.35632 34.9785 9.94896C34.9785 13.8655 32.9834 15.6398 30.8042 15.6398ZM40.2496 6.91583C39.4914 6.91583 38.6447 7.46061 38.6447 8.85202H41.7957C41.7957 7.46061 41.0006 6.91583 40.2496 6.91583ZM44.6374 11.1269H38.6742C38.8141 12.5698 39.8595 13.0336 41.0447 13.0336C42.2521 13.0336 43.2312 12.7612 44.0411 12.3195V14.8079C43.2165 15.3379 42.1196 15.6398 40.6619 15.6398C37.695 15.6398 35.6116 13.7551 35.6116 10.0373C35.6116 6.89374 37.3785 4.39803 40.2717 4.39803C43.165 4.39803 44.6742 6.85693 44.6742 10.0152C44.6742 10.3171 44.6521 10.9649 44.6374 11.1269Z" fill="#10112B"/>
</svg>
